<!-- Generator: Adobe Illustrator 19.1.0, SVG Export Plug-In  -->
<svg version="1.1"
	 xmlns="http://www.w3.org/2000/svg" xmlns:xlink="http://www.w3.org/1999/xlink" xmlns:a="http://ns.adobe.com/AdobeSVGViewerExtensions/3.0/"
	 x="0px" y="0px" width="47.7px" height="64.8px" viewBox="0 0 47.7 64.8" enable-background="new 0 0 47.7 64.8"
	 xml:space="preserve">
<defs>
</defs>
<g>
	<g>
		<path fill="#0C6A36" d="M23.9,0C10.7,0,0,10.7,0,23.9c0,3.4,0.7,6.7,2.1,9.7c6,13.1,17.4,26.8,20.8,30.8c0.3,0.3,0.6,0.5,1,0.5
			c0.4,0,0.8-0.2,1-0.5c3.4-3.9,14.8-17.7,20.8-30.8c1.4-3,2.1-6.3,2.1-9.7C47.7,10.7,37,0,23.9,0z"/>
	</g>
</g>
<path fill="#87AC65" d="M23.9,39.8C15.1,39.8,8,32.6,8,23.9C8,15.1,15.1,8,23.9,8s15.9,7.1,15.9,15.9C39.8,32.6,32.6,39.8,23.9,39.8
	z"/>
<g>
	<path fill="#FFFFFF" d="M15.4,32.2v-9.7c0-4.6,3.4-8.5,8-8.8c4.9-0.3,9,3.6,9.1,8.5c0,0,0,0,0,0h-4.8c0,0,0,0,0,0
		c0-2.1-1.7-3.7-3.8-3.6c-2,0.1-3.5,1.9-3.5,3.9l0,9.8c0,0,0,0,0,0L15.4,32.2C15.4,32.3,15.4,32.3,15.4,32.2z"/>
</g>
</svg>
