<!-- Generator: Adobe Illustrator 19.1.0, SVG Export Plug-In  -->
<svg version="1.1"
	 xmlns="http://www.w3.org/2000/svg" xmlns:xlink="http://www.w3.org/1999/xlink" xmlns:a="http://ns.adobe.com/AdobeSVGViewerExtensions/3.0/"
	 x="0px" y="0px" width="32px" height="32px" viewBox="0 0 32 32" enable-background="new 0 0 32 32" xml:space="preserve">
<defs>
</defs>
<g>
	<path fill="#FFFFFF" d="M30.1,14.1H17.9V1.9C17.9,0.9,17.1,0,16,0c-1.1,0-1.9,0.9-1.9,1.9v12.2H1.9C0.9,14.1,0,14.9,0,16
		c0,1.1,0.9,1.9,1.9,1.9h12.2v12.2c0,1.1,0.9,1.9,1.9,1.9c1.1,0,1.9-0.9,1.9-1.9V17.9h12.2c1.1,0,1.9-0.9,1.9-1.9
		C32,14.9,31.1,14.1,30.1,14.1z"/>
</g>
</svg>
