<!-- Generator: Adobe Illustrator 19.1.0, SVG Export Plug-In  -->
<svg version="1.1"
	 xmlns="http://www.w3.org/2000/svg" xmlns:xlink="http://www.w3.org/1999/xlink" xmlns:a="http://ns.adobe.com/AdobeSVGViewerExtensions/3.0/"
	 x="0px" y="0px" width="121.2px" height="125.2px" viewBox="0 0 121.2 125.2" enable-background="new 0 0 121.2 125.2"
	 xml:space="preserve">
<defs>
</defs>
<g>
	<defs>
		<circle id="SVGID_1_" cx="60.5" cy="60.5" r="60"/>
	</defs>
	<radialGradient id="SVGID_2_" cx="60.5" cy="60.5" r="60" gradientUnits="userSpaceOnUse">
		<stop  offset="0" style="stop-color:#F1F1F0"/>
		<stop  offset="1" style="stop-color:#FFFFFF"/>
	</radialGradient>
	<use xlink:href="#SVGID_1_"  overflow="visible" fill="url(#SVGID_2_)"/>
	<clipPath id="SVGID_3_">
		<use xlink:href="#SVGID_1_"  overflow="visible"/>
	</clipPath>
	<path clip-path="url(#SVGID_3_)" fill="#DDDCDC" d="M1.4,125.2c-0.3-3.7,1.6-6.2,4.8-7.7c9.4-4.5,18.7-9,28.1-13.4
		c0.6-0.3,1.2-0.7,1.8-0.8c3.2-0.7,4.4-3.1,5.5-5.7c0.5-1.1,0.8-2.3,1.7-3c2-1.6,1.9-3.8,2.2-5.9c0.2-1.3-0.2-1.8-1.5-2.1
		c-6.7-1.5-12.3-5.1-16.5-10.5c-0.3-0.4-0.6-0.8-0.8-1.2c-0.1-0.2-0.2-0.4-0.3-0.7c1.3-0.5,2.7-0.9,3.9-1.5
		c4.8-2.4,7.3-6.7,8.1-11.8c0.6-3.7,0.9-7.6,0.5-11.3c-1.6-13.8,4.8-22.6,18.6-24.7c4-0.6,7.8-0.2,11.6,1c2.2,0.7,4.2,1.8,5.1,4.1
		c0.1,0.3,0.7,0.7,1.1,0.7c5.4,0.7,8.3,4.9,8.7,10.1c0.2,2.6-0.2,5.2-0.1,7.9c0,4-0.2,8.1,0.4,12c1.1,6.8,4.8,11.7,12.2,13.4
		c-0.5,0.7-0.8,1.3-1.2,1.9c-4.3,5.6-9.8,9.1-16.6,10.7c-1.4,0.3-1.6,0.9-1.5,2.1c0.3,2.2,0.4,4.3,2.3,6.1c1.5,1.5,2.1,3.8,3.2,5.7
		c0.5,0.8,1.2,1.5,2,1.9c9.7,4.6,19.5,9.1,29.3,13.6c1,0.5,2,1.2,3,1.7c3.1,1.6,4.7,4,4.4,7.5C81.2,125.2,41.3,125.2,1.4,125.2z"/>
	<use xlink:href="#SVGID_1_"  overflow="visible" fill="none" stroke="#DDDCDC" stroke-miterlimit="10"/>
</g>
</svg>
