<!-- Generator: Adobe Illustrator 19.1.0, SVG Export Plug-In  -->
<svg version="1.1"
	 xmlns="http://www.w3.org/2000/svg" xmlns:xlink="http://www.w3.org/1999/xlink" xmlns:a="http://ns.adobe.com/AdobeSVGViewerExtensions/3.0/"
	 x="0px" y="0px" width="121px" height="123.5px" viewBox="0 0 121 123.5" enable-background="new 0 0 121 123.5"
	 xml:space="preserve">
<defs>
</defs>
<g>
	<defs>
		<circle id="SVGID_1_" cx="60.5" cy="60.5" r="60"/>
	</defs>
	<radialGradient id="SVGID_2_" cx="60.5" cy="60.5" r="60" gradientUnits="userSpaceOnUse">
		<stop  offset="0" style="stop-color:#F1F1F0"/>
		<stop  offset="1" style="stop-color:#FFFFFF"/>
	</radialGradient>
	<use xlink:href="#SVGID_1_"  overflow="visible" fill="url(#SVGID_2_)"/>
	<clipPath id="SVGID_3_">
		<use xlink:href="#SVGID_1_"  overflow="visible"/>
	</clipPath>
	<g clip-path="url(#SVGID_3_)">
		<g>
			<g>
				<path fill="#DDDCDC" d="M3.8,123.5c-0.3-3.6,1.5-5.9,4.6-7.4c8.3-4,16.6-8,24.9-11.9c1.2-0.6,2.4-1.3,3.7-1.6
					c4-1.1,5.4-4.1,5.8-7.8c0.2-1.3,0.3-2.5,2.1-2.3c0.3,0,0.9-0.7,0.9-1.1c0.3-2.3,0.5-4.5,0.6-6.8c0-0.7-0.2-1.4-0.5-2
					c-1.3-3.4-2.7-6.8-4.1-10.3c-0.2-0.5-0.3-1.2-0.6-1.4c-2.5-1.2-2.5-3.5-2.9-5.7c-0.3-1.4-0.6-2.8-0.5-4.2c0.1-1,0.8-1.9,1.2-2.9
					c0.3-0.7,0.7-1.4,0.6-2c-0.2-4.6-0.1-9.3-0.8-13.9c-0.7-5,2.3-10,7.6-11.9c3.2-1.1,6.6-1.6,9.9-2.5c4.4-1.2,8.9-2.5,13.2-4
					c1.9-0.7,3.5-2.1,5.4-3.3c1.6,3.1,3.1,6.4,3.7,10.1c0.1,0.7,0.5,1.6,1,2.1c2.6,2.6,4,5.6,3.6,9.4c-0.5,4.6-0.6,9.2-0.7,13.9
					c0,0.7,0.6,1.5,0.9,2.3c0.4,1.1,1,2.2,0.9,3.2c-0.1,1.9-0.6,3.8-0.9,5.7c-0.3,1.4-0.8,2.6-2.2,3.4c-0.4,0.2-0.7,0.9-0.9,1.4
					c-1.4,3.5-2.8,7-4.2,10.6c-0.2,0.6-0.4,1.2-0.4,1.8c0.2,2.3,0.3,4.6,0.7,6.8c0.1,0.5,0.8,1.1,1.3,1.1c1.1,0,1.4,0.6,1.7,1.6
					c0.6,2.2,1.4,4.3,2.2,6.4c0.2,0.5,1,0.9,1.6,1.2c9.3,4.3,18.6,8.6,27.9,13c1.1,0.5,2,1.2,3.1,1.7c2.9,1.5,4.5,3.8,4.2,7.2
					C80.3,123.5,42.1,123.5,3.8,123.5z"/>
			</g>
		</g>
	</g>
	<use xlink:href="#SVGID_1_"  overflow="visible" fill="none" stroke="#DDDCDC" stroke-miterlimit="10"/>
</g>
</svg>
