<!-- Generator: Adobe Illustrator 19.1.0, SVG Export Plug-In  -->
<svg version="1.1"
	 xmlns="http://www.w3.org/2000/svg" xmlns:xlink="http://www.w3.org/1999/xlink" xmlns:a="http://ns.adobe.com/AdobeSVGViewerExtensions/3.0/"
	 x="0px" y="0px" width="11.2px" height="24px" viewBox="0 0 11.2 24" enable-background="new 0 0 11.2 24" xml:space="preserve">
<defs>
</defs>
<g>
	<path id="Facebook_1_" fill="#FFFFFF" d="M2.4,4.6c0,0.6,0,3.3,0,3.3H0v4h2.4v12h5V12h3.3c0,0,0.3-1.9,0.5-4.1c-0.4,0-3.8,0-3.8,0
		s0-2.4,0-2.8c0-0.4,0.5-1,1.1-1c0.5,0,1.7,0,2.7,0c0-0.6,0-2.5,0-4.2c-1.4,0-3,0-3.7,0C2.3,0,2.4,4,2.4,4.6z"/>
</g>
</svg>
