<!-- Generator: Adobe Illustrator 19.1.0, SVG Export Plug-In  -->
<svg version="1.1"
	 xmlns="http://www.w3.org/2000/svg" xmlns:xlink="http://www.w3.org/1999/xlink" xmlns:a="http://ns.adobe.com/AdobeSVGViewerExtensions/3.0/"
	 x="0px" y="0px" width="18.9px" height="15.4px" viewBox="0 0 18.9 15.4" enable-background="new 0 0 18.9 15.4"
	 xml:space="preserve">
<defs>
</defs>
<path d="M1.3,0.7c0,0,2.9,3.8,7.9,4.1c0,0-0.7-2.3,1.4-4c2.1-1.7,4.7-0.3,5.2,0.4c0,0,1.5-0.2,2.5-0.9
	c0,0-0.3,1.3-1.6,2.1c0,0,1.5-0.2,2.1-0.6c0,0-0.7,1.1-1.9,2c0,0,0.5,4.8-3.6,8.8c-4.1,4-10.9,3.1-13.3,1.1c0,0,3.3,0.4,5.7-1.6
	c0,0-2.8-0.1-3.6-2.6c0,0,1.4,0.1,1.6-0.2c0,0-3-0.7-3-3.8c0,0,0.9,0.5,1.7,0.5C2.4,5.9-0.4,3.8,1.3,0.7z"/>
</svg>
