<!-- Generator: Adobe Illustrator 19.1.0, SVG Export Plug-In  -->
<svg version="1.1"
	 xmlns="http://www.w3.org/2000/svg" xmlns:xlink="http://www.w3.org/1999/xlink" xmlns:a="http://ns.adobe.com/AdobeSVGViewerExtensions/3.0/"
	 x="0px" y="0px" width="14.5px" height="14.6px" viewBox="0 0 14.5 14.6" enable-background="new 0 0 14.5 14.6"
	 xml:space="preserve">
<defs>
</defs>
<g>
	<circle cx="2.2" cy="12.4" r="2.2"/>
	<path d="M9.8,14.6H7.4c0-4-3.4-7.4-7.4-7.4V4.8c2.6,0,5,1,6.9,2.9C8.7,9.6,9.8,12,9.8,14.6z"/>
	<path d="M14.5,14.6h-2.3C12.2,7.9,6.6,2.3,0,2.3V0c2,0,3.9,0.4,5.7,1.2C7.4,1.9,9,3,10.3,4.3
		c1.3,1.3,2.4,2.9,3.1,4.6C14.2,10.8,14.5,12.7,14.5,14.6z"/>
</g>
</svg>
