<!-- Generator: Adobe Illustrator 19.1.0, SVG Export Plug-In  -->
<svg version="1.1"
	 xmlns="http://www.w3.org/2000/svg" xmlns:xlink="http://www.w3.org/1999/xlink" xmlns:a="http://ns.adobe.com/AdobeSVGViewerExtensions/3.0/"
	 x="0px" y="0px" width="14.9px" height="16.6px" viewBox="0 0 14.9 16.6" enable-background="new 0 0 14.9 16.6"
	 xml:space="preserve">
<defs>
</defs>
<g>
	<g>
		<path d="M7.4,8.5C7,8,7.3,7.3,7.7,7C8,6.7,8.5,6.3,8.8,6C9,5.8,9.6,5.2,9.7,3.5c0,0,0.2-1.5-1.5-2.7h1.3L10.8,0
			H6.2c0,0-2.8-0.1-4.1,1.6c-1.3,1.7-1.3,3.8,0.2,5c1.4,1.2,3.2,0.9,3.2,0.9s-0.3,0.6-0.2,1c0,0.5,0.6,1.1,0.7,1.3
			c0,0-3.2,0-4.7,1.4c-1.6,1.4-1.7,4.1,1.4,5.1c3.1,0.9,7.1-0.1,7.9-3c0,0,0.3-1.2-0.3-2.2C9.5,10,7.9,8.9,7.4,8.5z M4,6
			C3,4.7,2.3,2.1,4,1c0,0,1.3-0.8,2.4,0.4c1.1,1.1,1.4,3,1.2,4c-0.2,1-0.8,1.2-1,1.3C6.5,6.8,5,7.3,4,6z M8.9,13.3
			c0,0.5-0.1,1.7-2,2.2c-1.9,0.5-5.1-0.4-5-2.5c0,0,0-0.9,0.6-1.5c0.6-0.5,1.5-1.1,4-1.1c0,0,0.9,0.6,1.4,1.1
			C8.6,12,9,12.8,8.9,13.3z"/>
		<polygon points="13.2,7 13.2,5.4 12.2,5.4 12.2,7 10.5,7 10.5,8 12.2,8 12.2,9.7 13.2,9.7 13.2,8 14.9,8 14.9,7 		
			"/>
	</g>
</g>
</svg>
