<!-- Generator: Adobe Illustrator 19.1.0, SVG Export Plug-In  -->
<svg version="1.1"
	 xmlns="http://www.w3.org/2000/svg" xmlns:xlink="http://www.w3.org/1999/xlink" xmlns:a="http://ns.adobe.com/AdobeSVGViewerExtensions/3.0/"
	 x="0px" y="0px" width="24px" height="22.9px" viewBox="0 0 24 22.9" enable-background="new 0 0 24 22.9" xml:space="preserve">
<defs>
</defs>
<g>
	<path id="LinkedIn_1_" d="M24,14.1v8.9h-5.1v-8.3c0-2.1-0.7-3.5-2.6-3.5c-1.4,0-2.3,1-2.6,1.9
		c-0.1,0.3-0.2,0.8-0.2,1.3v8.6H8.3c0,0,0.1-14,0-15.5h5.1v2.2c0,0,0,0,0,0h0v0c0.7-1.1,1.9-2.6,4.6-2.6C21.5,7.1,24,9.3,24,14.1z
		 M2.9,0C1.2,0,0,1.2,0,2.7c0,1.5,1.1,2.7,2.8,2.7h0c1.8,0,2.9-1.2,2.9-2.7C5.8,1.2,4.7,0,2.9,0z M0.3,22.9h5.1V7.5H0.3V22.9z"/>
</g>
</svg>
