<!-- Generator: Adobe Illustrator 18.1.1, SVG Export Plug-In  -->
<svg version="1.1"
	 xmlns="http://www.w3.org/2000/svg" xmlns:xlink="http://www.w3.org/1999/xlink" xmlns:a="http://ns.adobe.com/AdobeSVGViewerExtensions/3.0/"
	 x="0px" y="0px" width="158.93px" height="24.15px" viewBox="0 0 158.93 24.15" enable-background="new 0 0 158.93 24.15"
	 xml:space="preserve">
<defs>
</defs>
<g>
	<g>
		<path fill="#443922" d="M19.47,15.86l6.02-3.47c-1.87-1.66-3.84-0.75-4.72-0.16C18.73,13.61,19.47,15.86,19.47,15.86z M31.04,19.8
			c-1.56,3.42-4.92,4.34-7.48,4.34c-4.53,0-8.2-3.67-8.2-8.2c0-4.52,3.67-8.19,8.2-8.19c3.58,0,6.63,2.3,7.74,5.5l-3.8,2.12
			l-6.41,3.69c0.46,0.78,1.62,1.3,2.53,1.3c0.97,0,2.91-0.11,4.2-2.39L31.04,19.8z"/>
	</g>
	<g>
		<path fill="#D6362B" d="M135.32,23.91c-3.53-0.01-6.01-6.1-6.67-8.55c-0.97-3.6-1.7-7.91-1.7-7.91h4.25c0,0,0.44,3.3,1.49,6.82
			c0.59,1.98,1.58,3.75,2.63,4.76c1.05-1,2.04-2.78,2.63-4.76c1.05-3.52,1.49-6.82,1.49-6.82h4.25c0,0-0.73,4.3-1.7,7.91
			C141.32,17.81,138.83,23.9,135.32,23.91z"/>
	</g>
	<g>
		<path fill="#443922" d="M150.56,7.46c3.53,0.01,6.01,6.11,6.67,8.55c0.97,3.6,1.7,7.91,1.7,7.91h-4.25c0,0-0.44-3.3-1.49-6.82
			c-0.59-1.98-1.58-3.76-2.63-4.76c-1.05,1-2.04,2.78-2.63,4.76c-1.05,3.52-1.49,6.82-1.49,6.82h-4.25c0,0,0.73-4.3,1.7-7.91
			C144.56,13.56,147.04,7.47,150.56,7.46z"/>
	</g>
	<g>
		<path fill="#226C3E" d="M55.5,23.81l-3.59,0.01h-4.12L47.77,12h-3.34l-3.13-0.02c-3.73,0-4.92,1.9-4.92,3.63
			c0,2.15,1.14,4.06,5.39,4.06h1.72l1.87,4.15h-4.37c-7.33,0-8.77-4.64-8.77-8.21c0-4,2.74-7.78,8.77-7.78l3.16,0.02h3.6V7.74V0
			h4.15v19.66h3.32l3.13,0.02c3.72,0,4.91-1.9,4.91-3.63c0-2.15-1.14-4.06-5.39-4.06h-1.72L54.3,7.83h4.37
			c7.32,0,8.77,4.64,8.77,8.21c0,4-2.74,7.78-8.77,7.78L55.5,23.81z"/>
	</g>
	<g>
		<path fill="#87AC64" d="M83.98,7.61c4.44,0,8.04,3.6,8.04,8.04c0,4.44-3.6,8.04-8.04,8.04c-4.44,0-8.04-3.6-8.04-8.04
			C75.95,11.21,79.54,7.61,83.98,7.61z M83.98,11.41c-2.34,0-4.24,1.9-4.24,4.24c0,2.34,1.9,4.24,4.24,4.24
			c2.34,0,4.24-1.9,4.24-4.24C88.22,13.3,86.33,11.41,83.98,11.41z"/>
	</g>
	<g>
		<path fill="#F28000" d="M93.89,23.56v-8.78c0-4.04,3.28-7.32,7.32-7.32c4.04,0,7.32,3.28,7.32,7.32v8.78h-4.18v-8.78
			c0-1.73-1.41-3.14-3.14-3.14c-1.73,0-3.14,1.4-3.14,3.14v8.78H93.89z"/>
	</g>
	<g>
		<rect x="69.27" y="7.35" fill="#337321" width="4.18" height="16.21"/>
	</g>
	<g>
		<path fill="#D6362B" d="M118.7,7.61c4.44,0,8.04,3.6,8.04,8.04c0,4.44-3.6,8.04-8.04,8.04c-4.44,0-8.04-3.6-8.04-8.04
			C110.66,11.21,114.26,7.61,118.7,7.61z M118.7,11.41c-2.34,0-4.24,1.9-4.24,4.24c0,2.34,1.9,4.24,4.24,4.24
			c2.34,0,4.24-1.9,4.24-4.24C122.94,13.3,121.04,11.41,118.7,11.41z"/>
	</g>
	<g>
		<path fill="#443922" d="M0,23.73v-8.58c0-4.01,3.25-7.26,7.26-7.26c4.01,0,7.26,3.25,7.26,7.26h-4.15c0-1.72-1.39-3.11-3.11-3.11
			c-1.72,0-3.11,1.39-3.11,3.11v8.58H0z"/>
	</g>
</g>
</svg>
