<!-- Generator: Adobe Illustrator 18.1.1, SVG Export Plug-In  -->
<svg version="1.1"
	 xmlns="http://www.w3.org/2000/svg" xmlns:xlink="http://www.w3.org/1999/xlink" xmlns:a="http://ns.adobe.com/AdobeSVGViewerExtensions/3.0/"
	 x="0px" y="0px" width="17.2px" height="17.2px" viewBox="0 0 17.2 17.2" enable-background="new 0 0 17.2 17.2"
	 xml:space="preserve">
<defs>
</defs>
<g>
	<g>
		<g>
			<path  d="M6.59,13.04C2.96,13.04,0,10.12,0,6.52C0,2.93,2.96,0,6.59,0c3.64,0,6.59,2.93,6.59,6.52
				C13.19,10.12,10.23,13.04,6.59,13.04z M6.59,1.39c-2.86,0-5.19,2.3-5.19,5.13c0,2.83,2.33,5.13,5.19,5.13
				c2.86,0,5.19-2.3,5.19-5.13C11.78,3.69,9.45,1.39,6.59,1.39z"/>
		</g>
		<g>
			<path  d="M11.48,10.56c0,0,0.07-0.03,0.17-0.05c0.1-0.03,0.23-0.05,0.36-0.04c0.13,0.01,0.26,0.05,0.37,0.14
				c0.1,0.09,0.22,0.19,0.35,0.3c0.51,0.44,1.18,1.04,1.82,1.67c0.31,0.32,0.64,0.63,0.92,0.94c0.29,0.3,0.55,0.59,0.78,0.85
				c0.44,0.51,0.71,0.87,0.71,0.87c0.41,0.55,0.29,1.33-0.27,1.73c-0.45,0.33-1.05,0.31-1.48,0c0,0-0.37-0.27-0.88-0.71
				c-0.26-0.22-0.55-0.48-0.86-0.77c-0.31-0.28-0.62-0.6-0.95-0.91c-0.63-0.64-1.24-1.29-1.69-1.8c-0.11-0.13-0.22-0.24-0.31-0.34
				c-0.09-0.1-0.13-0.23-0.14-0.36c-0.01-0.13,0.02-0.26,0.04-0.36c0.02-0.1,0.06-0.17,0.05-0.17
				C10.69,11.09,11.05,10.75,11.48,10.56z"/>
		</g>
	</g>
</g>
</svg>
