<?xml version="1.0" encoding="utf-8"?>
<!-- Generator: Adobe Illustrator 19.1.0, SVG Export Plug-In . SVG Version: 6.00 Build 0)  -->
<svg version="1.1" id="Capa_1" xmlns="http://www.w3.org/2000/svg" xmlns:xlink="http://www.w3.org/1999/xlink" x="0px" y="0px"
	 width="16px" height="11px" viewBox="0 0 16 11" enable-background="new 0 0 16 11" xml:space="preserve">
<g>
	<g>
		<path d="M16,0.5C16,0.2,15.8,0,15.5,0H0.5C0.2,0,0,0.2,0,0.5v9.9C0,10.8,0.2,11,0.5,11h14.9c0.3,0,0.5-0.2,0.5-0.5
			V0.5z M15,10H1V1h14V10z"/>
		<path d="M3,3.6l4.8,3C8,6.6,8.1,6.6,8.1,6.6s0.2,0,0.3-0.1l4.8-3c0.2-0.1,0.3-0.5,0.2-0.7S13,2.5,12.7,2.7L8.1,5.5
			L3.6,2.7C3.3,2.5,3,2.6,2.9,2.9C2.7,3.1,2.8,3.4,3,3.6z"/>
	</g>
</g>
</svg>
