<!-- Generator: Adobe Illustrator 19.1.0, SVG Export Plug-In  -->
<svg version="1.1"
	 xmlns="http://www.w3.org/2000/svg" xmlns:xlink="http://www.w3.org/1999/xlink" xmlns:a="http://ns.adobe.com/AdobeSVGViewerExtensions/3.0/"
	 x="0px" y="0px" width="17px" height="17px" viewBox="0 0 17 17" enable-background="new 0 0 17 17" xml:space="preserve">
<defs>
</defs>
<g>
	<g>
		<g>
			<path fill="#0C6A36" d="M16.9,12.9c0-0.1-1-1.9-3.6-2.5c-0.2,0-0.4,0-0.5,0.1c-0.8,0.7-2,1.5-2.5,1.5C7,10.4,5.2,7.3,5.1,6.8
				c0-0.3,0.7-1.5,1.6-2.4c0.1-0.1,0.2-0.3,0.2-0.4C6.7,1.3,4,0.1,3.9,0.1C3.8,0,3.7,0,3.6,0C0.5,0.5,0,2.3,0,2.4c0,0.1,0,0.2,0,0.3
				C3.7,14,11.3,16.1,13.7,16.8l0.5,0.1l0.2,0l0.2-0.1c0.1,0,1.9-0.9,2.3-3.7C17,13.1,17,13,16.9,12.9z"/>
		</g>
	</g>
</g>
</svg>
