<!-- Generator: Adobe Illustrator 19.1.0, SVG Export Plug-In  -->
<svg version="1.1"
	 xmlns="http://www.w3.org/2000/svg" xmlns:xlink="http://www.w3.org/1999/xlink" xmlns:a="http://ns.adobe.com/AdobeSVGViewerExtensions/3.0/"
	 x="0px" y="0px" width="14.8px" height="20px" viewBox="0 0 14.8 20" enable-background="new 0 0 14.8 20" xml:space="preserve">
<defs>
</defs>
<g>
	<g>
		<path fill="#0C6A36" d="M7.4,0C3.3,0,0,3.3,0,7.4c0,1.1,0.2,2.1,0.6,3c1.8,4,5.4,8.3,6.4,9.5C7.1,20,7.3,20,7.4,20
			s0.2-0.1,0.3-0.1c1-1.2,4.6-5.5,6.4-9.5c0.4-0.9,0.6-2,0.6-3C14.8,3.3,11.5,0,7.4,0z M7.4,11.2c-2.1,0-3.8-1.7-3.8-3.8
			c0-2.1,1.7-3.8,3.8-3.8s3.8,1.7,3.8,3.8C11.2,9.5,9.5,11.2,7.4,11.2z"/>
	</g>
</g>
</svg>
