<!-- Generator: Adobe Illustrator 19.1.0, SVG Export Plug-In  -->
<svg version="1.1"
	 xmlns="http://www.w3.org/2000/svg" xmlns:xlink="http://www.w3.org/1999/xlink" xmlns:a="http://ns.adobe.com/AdobeSVGViewerExtensions/3.0/"
	 x="0px" y="0px" width="16.5px" height="16.5px" viewBox="0 0 16.5 16.5" enable-background="new 0 0 16.5 16.5"
	 xml:space="preserve">
<defs>
</defs>
<g>
	<path d="M16.5,8c0,4.4-3.6,8-8.1,8c-1.4,0-2.8-0.4-3.9-1L0,16.5l1.5-4.3C0.7,11,0.3,9.6,0.3,8c0-4.4,3.6-8,8.1-8
		C12.9,0,16.5,3.6,16.5,8z M8.4,1.3c-3.8,0-6.8,3-6.8,6.8c0,1.5,0.5,2.8,1.3,4L2,14.5l2.6-0.8c1.1,0.7,2.4,1.1,3.7,1.1
		c3.8,0,6.8-3,6.8-6.8C15.2,4.3,12.2,1.3,8.4,1.3z M12.5,9.9c-0.1-0.1-0.2-0.1-0.4-0.2c-0.2-0.1-1.2-0.6-1.4-0.6
		c-0.2-0.1-0.3-0.1-0.4,0.1c-0.1,0.2-0.5,0.6-0.6,0.8C9.6,10,9.4,10,9.2,9.9C9.1,9.8,8.4,9.6,7.7,9c-0.6-0.5-1-1.2-1.1-1.4
		c-0.1-0.2,0-0.3,0.1-0.4C6.7,7.1,6.8,7,6.9,6.9C7,6.7,7.1,6.7,7.1,6.5c0.1-0.1,0-0.2,0-0.3c0-0.1-0.4-1.1-0.6-1.5
		C6.3,4.3,6.2,4.4,6.1,4.4c-0.1,0-0.2,0-0.4,0s-0.3,0-0.5,0.2C5,4.8,4.4,5.3,4.4,6.3c0,1,0.7,1.9,0.8,2c0.1,0.1,1.4,2.2,3.4,3
		c2,0.8,2,0.5,2.4,0.5c0.4,0,1.2-0.5,1.3-0.9C12.5,10.4,12.5,10,12.5,9.9z"/>
</g>
</svg>
