<!-- Generator: Adobe Illustrator 19.1.0, SVG Export Plug-In  -->
<svg version="1.1"
	 xmlns="http://www.w3.org/2000/svg" xmlns:xlink="http://www.w3.org/1999/xlink" xmlns:a="http://ns.adobe.com/AdobeSVGViewerExtensions/3.0/"
	 x="0px" y="0px" width="24px" height="17.1px" viewBox="0 0 24 17.1" enable-background="new 0 0 24 17.1" xml:space="preserve">
<defs>
</defs>
<g>
	<g>
		<path fill="#FFFFFF" d="M23.8,4c-0.1-1.6-1.1-3.6-3-3.7c-5.5-0.4-11.9-0.5-17.5,0c-1.7,0.2-2.9,2.3-3,3.9c-0.3,3.4-0.3,5.3,0,8.6
			c0.1,1.6,1.3,3.7,3,3.9c5.6,0.4,12.1,0.4,17.5,0c1.7-0.3,2.9-2.3,3-3.9C24.1,9.5,24.1,7.4,23.8,4z M9,12.8V4.2l7.5,4.3L9,12.8z"/>
	</g>
</g>
</svg>
