<svg style="display: none;"><symbol viewBox="0 0 119.1 96.6" id="shape-biotech"><title>biotech</title>  <g> <path d="M10.8,44.9c-0.6,0-1.3-0.1-1.9-0.3c-0.9-0.3-1.8-0.7-2.6-1.3C5.6,42.8,5,42,4.5,41.2c-0.5-0.9-0.9-1.9-1-3
		L0,12.4l2.9-0.4l3.5,25.7c0.2,1.5,0.8,2.6,1.7,3.3c1,0.7,2.1,1,3.4,0.8c1.4-0.2,2.5-0.7,3.2-1.7c0.7-0.9,0.9-2.2,0.7-3.7l-1.2-8.9
		c-0.2-1.5-0.8-2.7-1.7-3.4c-1-0.7-2.1-1-3.4-0.8c-0.6,0.1-1.1,0.2-1.6,0.4c-0.5,0.2-0.9,0.5-1.2,0.8l-0.7,0.7L5,22.1l0.3-0.2
		c1-0.7,2.1-1.1,3.3-1.3c1-0.1,2-0.1,2.9,0.2c0.9,0.2,1.8,0.7,2.6,1.2c0.8,0.6,1.4,1.3,1.9,2.2c0.5,0.9,0.9,1.9,1,3l1.2,8.9
		c0.1,1.1,0.1,2.2-0.2,3.1c-0.3,1-0.7,1.9-1.2,2.6c-0.6,0.8-1.3,1.4-2.1,1.9c-0.9,0.5-1.8,0.8-2.9,1C11.5,44.8,11.2,44.9,10.8,44.9
		 M1.2,13.3L4.5,38c0.1,1,0.4,1.8,0.9,2.6c0.4,0.8,1,1.4,1.7,1.9c0.7,0.5,1.4,0.9,2.2,1.1c0.8,0.2,1.6,0.3,2.5,0.2
		c0.9-0.1,1.7-0.4,2.5-0.8c0.7-0.4,1.3-1,1.8-1.6c0.5-0.7,0.8-1.4,1.1-2.3c0.2-0.9,0.3-1.8,0.1-2.7L16,27.4c-0.1-1-0.4-1.9-0.9-2.6
		c-0.4-0.8-1-1.4-1.7-1.9c-0.7-0.5-1.4-0.9-2.2-1.1c-0.8-0.2-1.7-0.3-2.5-0.1c-1,0.1-1.8,0.4-2.6,0.9l0.1,0.8
		C6.5,23.2,6.7,23.1,7,23c0.6-0.3,1.2-0.4,1.9-0.5c1.6-0.2,3,0.1,4.2,1c1.2,0.9,1.9,2.2,2.2,4.1l1.2,8.9c0.2,1.8-0.1,3.3-0.9,4.4
		c-0.9,1.2-2.2,1.9-3.9,2.1c-1.6,0.2-3-0.1-4.2-1c-1.2-0.9-1.9-2.2-2.1-4L2,13.2L1.2,13.3z"/> <path d="M23.2,43L20,19.1l2.9-0.4l3.2,23.9L23.2,43z M21.2,20l2.9,21.9l0.8-0.1L22,19.9L21.2,20z M20.8,15.8
		c-0.4,0-0.7-0.1-1-0.3c-0.4-0.3-0.6-0.6-0.6-1.1c-0.1-0.5,0-0.9,0.3-1.3c0.3-0.4,0.7-0.6,1.1-0.6c0.5-0.1,0.9,0,1.3,0.3
		c0.4,0.3,0.6,0.7,0.6,1.1c0.1,0.5,0,0.9-0.3,1.3c-0.3,0.4-0.7,0.6-1.1,0.6C20.9,15.8,20.9,15.8,20.8,15.8 M20.9,13.5
		c0,0-0.1,0-0.1,0c-0.3,0-0.4,0.1-0.4,0.2c-0.1,0.1-0.1,0.2-0.1,0.5c0,0.3,0.1,0.4,0.2,0.4c0.1,0.1,0.3,0.1,0.5,0.1
		c0.3,0,0.4-0.1,0.4-0.2c0.1-0.1,0.1-0.3,0.1-0.5c0-0.3-0.1-0.4-0.2-0.4C21.1,13.5,21,13.5,20.9,13.5"/> <path d="M36.4,41.4c-0.7,0-1.3-0.1-1.9-0.3c-1-0.3-1.8-0.7-2.6-1.3c-0.7-0.6-1.4-1.3-1.9-2.2c-0.5-0.9-0.8-1.9-1-3
		l-1.2-9.2c-0.2-1.1-0.1-2.2,0.1-3.2c0.2-1,0.7-1.9,1.2-2.6c0.6-0.8,1.3-1.4,2.1-1.9c0.8-0.5,1.8-0.8,2.8-0.9c1-0.1,2-0.1,2.9,0.2
		c0.9,0.2,1.8,0.7,2.6,1.2c0.8,0.6,1.4,1.3,1.9,2.2c0.5,0.9,0.9,1.9,1,3l1.2,9.2c0.1,1.1,0.1,2.2-0.2,3.1c-0.3,1-0.7,1.9-1.3,2.6
		c-0.6,0.8-1.3,1.4-2.1,1.9c-0.8,0.5-1.8,0.8-2.8,1C37.2,41.4,36.8,41.4,36.4,41.4 M35.3,17.9c-0.3,0-0.6,0-0.9,0.1
		c-0.9,0.1-1.7,0.4-2.5,0.8c-0.7,0.4-1.3,0.9-1.8,1.6c-0.5,0.7-0.8,1.4-1.1,2.3c-0.2,0.8-0.3,1.8-0.1,2.8l1.2,9.2
		c0.1,1,0.4,1.8,0.8,2.6c0.4,0.8,1,1.4,1.6,1.9c0.6,0.5,1.4,0.9,2.2,1.1c0.8,0.2,1.7,0.3,2.6,0.1c0.9-0.1,1.7-0.4,2.4-0.8
		c0.7-0.4,1.3-1,1.8-1.6c0.5-0.7,0.9-1.4,1.1-2.3c0.2-0.8,0.3-1.8,0.2-2.7l-1.2-9.2c-0.1-1-0.4-1.9-0.9-2.6c-0.4-0.8-1-1.4-1.7-1.9
		c-0.7-0.5-1.4-0.9-2.2-1.1C36.4,18,35.9,17.9,35.3,17.9 M36.3,39.6L36.3,39.6c-1.3,0-2.4-0.4-3.3-1.1c-1.1-0.9-1.8-2.3-2.1-4
		l-1.2-9.2c-0.2-1.8,0.1-3.3,0.9-4.5c0.9-1.2,2.2-1.8,3.9-2.1c1.6-0.2,3,0.1,4.2,1c1.2,0.9,1.9,2.2,2.2,4.1l1.2,9.2
		c0.2,1.8-0.1,3.3-1,4.4c-0.9,1.2-2.2,1.9-3.8,2.1C36.9,39.6,36.6,39.6,36.3,39.6 M35.4,19.8c-0.3,0-0.5,0-0.8,0.1
		c-1.4,0.2-2.5,0.7-3.2,1.7c-0.7,0.9-0.9,2.2-0.7,3.7l1.2,9.2c0.2,1.5,0.8,2.6,1.7,3.4c0.7,0.6,1.6,0.9,2.6,0.9c0.3,0,0.6,0,0.9-0.1
		c1.3-0.2,2.3-0.7,3.1-1.7c0.7-0.9,1-2.2,0.8-3.7L39.8,24c-0.2-1.5-0.8-2.7-1.7-3.4C37.3,20,36.4,19.8,35.4,19.8"/> <path d="M55.6,38.8c-0.3,0-0.6,0-0.9-0.1c-1.1-0.2-2.1-0.5-3-1c-0.9-0.5-1.7-1.3-2.3-2.2c-0.6-0.9-1.1-2.1-1.2-3.4
		l-1.8-13.7l-1.8,0.2l-0.4-2.9l1.8-0.2l-1.2-9.2l2.9-0.4l1.2,9.2l4.1-0.6l0.4,2.9l-4.1,0.6L51,31.8c0.1,0.9,0.4,1.6,0.8,2.2
		c0.4,0.6,0.9,1,1.5,1.4c0.6,0.3,1.3,0.5,2,0.6c0.6,0.1,1.1,0,1.7-0.2l0.6-0.2l0.4,2.9l-0.5,0.1C56.9,38.8,56.3,38.8,55.6,38.8
		 M47.2,17.3l2,14.7c0.2,1.2,0.5,2.1,1.1,2.9c0.5,0.8,1.2,1.4,2,1.9c0.8,0.5,1.7,0.8,2.6,0.9c0.6,0.1,1.3,0.1,1.9-0.1l-0.1-0.8
		c-0.5,0.1-1,0.1-1.6,0.1c-0.8-0.1-1.7-0.3-2.4-0.7c-0.7-0.4-1.4-1-1.8-1.7c-0.5-0.7-0.8-1.6-0.9-2.7l-2-14.7l4.1-0.6L52,15.9
		l-4.1,0.6l-1.2-9.2l-0.8,0.1l1.2,9.2l-1.8,0.2l0.1,0.8L47.2,17.3z"/> <path d="M66.2,37.4c-0.6,0-1.3-0.1-1.9-0.2c-1-0.2-1.8-0.6-2.6-1.2c-0.7-0.6-1.4-1.3-1.9-2.2c-0.5-0.9-0.8-1.9-1-3
		l-1.2-9.2c-0.1-1.1-0.1-2.2,0.2-3.1c0.3-1,0.7-1.9,1.2-2.6c0.6-0.8,1.3-1.4,2.1-1.9c0.8-0.5,1.8-0.8,2.8-1c1-0.1,2-0.1,2.9,0.2
		c0.9,0.3,1.8,0.7,2.6,1.3c0.8,0.6,1.4,1.3,1.9,2.2c0.5,0.9,0.9,1.9,1,3c0.1,1,0,1.9-0.2,2.8c-0.3,0.9-0.7,1.7-1.3,2.4
		c-0.6,0.7-1.3,1.3-2.1,1.8c-0.8,0.5-1.8,0.8-2.8,0.9L62.3,28l-0.4-2.9l3.7-0.5c1.3-0.2,2.3-0.7,3.1-1.7c0.7-0.9,1-2,0.8-3.2
		c-0.2-1.5-0.8-2.6-1.7-3.2c-1-0.7-2.1-0.9-3.4-0.7c-1.4,0.2-2.5,0.7-3.2,1.6c-0.7,0.9-0.9,2-0.7,3.5l1.3,9.4
		c0.2,1.5,0.8,2.7,1.7,3.4c0.9,0.7,2.1,1,3.5,0.8c1.6-0.2,2.7-1,3.5-2.3l0.2-0.4l2.5,1.2L73,33.4c-0.5,1-1.3,1.9-2.3,2.6
		c-1,0.7-2.1,1.1-3.3,1.3C66.9,37.4,66.6,37.4,66.2,37.4 M65.1,13.9c-0.3,0-0.6,0-0.9,0.1c-0.9,0.1-1.7,0.4-2.5,0.8
		c-0.7,0.4-1.3,1-1.8,1.6c-0.5,0.7-0.8,1.4-1.1,2.3c-0.2,0.8-0.3,1.8-0.1,2.7l1.2,9.2c0.1,1,0.4,1.9,0.9,2.7c0.4,0.8,1,1.4,1.6,1.9
		c0.6,0.5,1.4,0.8,2.2,1c0.8,0.2,1.7,0.3,2.6,0.1c1-0.1,2-0.5,2.9-1.1c0.7-0.5,1.3-1.1,1.7-1.8l-0.7-0.3c-1,1.4-2.3,2.2-4,2.4
		c-1.7,0.2-3.1-0.1-4.3-1c-1.1-0.9-1.8-2.2-2.1-4.1l-1.3-9.4c-0.2-1.8,0.1-3.2,1-4.3c0.9-1.1,2.2-1.7,3.9-2c1.6-0.2,3,0.1,4.2,0.9
		c1.2,0.8,1.9,2.1,2.1,3.9c0.2,1.5-0.2,2.9-1.1,4c-0.9,1.1-2.2,1.8-3.8,2.1L63.1,26l0.1,0.8l2.7-0.4c0.9-0.1,1.7-0.4,2.4-0.8
		c0.7-0.4,1.3-0.9,1.9-1.5c0.5-0.6,0.9-1.3,1.1-2.1c0.2-0.8,0.3-1.5,0.2-2.3c-0.1-1-0.4-1.8-0.9-2.6c-0.4-0.8-1-1.4-1.7-1.9
		c-0.7-0.5-1.4-0.9-2.2-1.1C66.2,14,65.6,13.9,65.1,13.9"/> <path d="M84,35.1c-0.7,0-1.3-0.1-1.9-0.2c-1-0.3-1.8-0.7-2.6-1.3c-0.7-0.6-1.4-1.3-1.9-2.2c-0.5-0.9-0.8-1.9-1-3
		l-1.2-9.2c-0.2-1.1-0.1-2.2,0.1-3.2c0.2-1,0.7-1.9,1.2-2.6c0.6-0.8,1.3-1.4,2.1-1.9c0.9-0.5,1.8-0.8,2.8-0.9c1.2-0.2,2.4,0,3.5,0.4
		c1.2,0.4,2.2,1.1,3,2l0.4,0.4l-2.2,1.7l-0.3-0.4c-0.2-0.3-0.4-0.5-0.7-0.7c-0.3-0.2-0.6-0.3-1-0.4c-0.4-0.1-0.7-0.2-1.1-0.2
		c-0.4,0-0.8,0-1.1,0c-1.4,0.2-2.5,0.7-3.2,1.7c-0.7,0.9-0.9,2.2-0.7,3.7l1.2,9.2c0.2,1.5,0.8,2.6,1.7,3.4c0.9,0.7,2.1,1,3.5,0.8
		c0.7-0.1,1.4-0.3,2.1-0.7c0.6-0.4,1.1-0.9,1.4-1.5l0.2-0.5l2.6,1.2l-0.3,0.5c-0.5,1-1.3,1.9-2.3,2.6c-1,0.7-2.1,1.2-3.3,1.3
		C84.7,35,84.3,35.1,84,35.1 M82.8,11.5c-0.3,0-0.6,0-0.9,0.1c-0.9,0.1-1.7,0.4-2.5,0.8c-0.7,0.4-1.3,0.9-1.8,1.6
		c-0.5,0.7-0.8,1.4-1.1,2.3c-0.2,0.8-0.3,1.8-0.1,2.8l1.2,9.2c0.1,1,0.4,1.8,0.8,2.6c0.4,0.8,1,1.4,1.6,1.9c0.6,0.5,1.4,0.9,2.2,1.1
		c0.8,0.2,1.7,0.3,2.6,0.1c1-0.1,2-0.5,2.8-1.1c0.7-0.5,1.3-1.1,1.7-1.8l-0.6-0.3c-0.4,0.6-0.9,1.1-1.5,1.5
		c-0.8,0.5-1.6,0.7-2.5,0.9c-0.3,0-0.7,0.1-1,0.1c-1.3,0-2.4-0.4-3.3-1.1c-1.1-0.9-1.8-2.3-2.1-4l-1.2-9.2c-0.2-1.8,0.1-3.3,0.9-4.5
		c0.9-1.1,2.2-1.8,3.9-2.1c0.4-0.1,0.8-0.1,1.3,0c0.5,0,0.9,0.1,1.4,0.2c0.5,0.1,0.9,0.3,1.3,0.6c0.2,0.2,0.5,0.3,0.6,0.5l0.5-0.4
		c-0.6-0.6-1.4-1.1-2.2-1.3C84.2,11.7,83.5,11.5,82.8,11.5"/> <path d="M94.4,33.5L89.9,0.4L92.8,0l1.5,10.9c0.4-0.4,0.8-0.8,1.3-1.2c0.9-0.7,1.9-1.1,2.9-1.3c1-0.1,2-0.1,3,0.1
		c1,0.2,1.8,0.7,2.6,1.2c0.7,0.6,1.4,1.3,1.9,2.2c0.5,0.9,0.8,1.9,1,3l2.2,16.6l-2.9,0.4L104,15.3c-0.2-1.5-0.8-2.7-1.7-3.4
		c-0.9-0.7-2.1-1-3.5-0.8c-1.3,0.2-2.4,0.7-3.1,1.7c-0.7,0.9-1,2.1-0.8,3.7l2.2,16.6L94.4,33.5z M91.1,1.3l4.2,31l0.8-0.1L94,16.7
		c-0.2-1.8,0.1-3.3,1-4.5c0.9-1.2,2.2-1.8,3.8-2.1c1.7-0.2,3.1,0.1,4.3,1c1.1,0.9,1.8,2.2,2.1,4.1l2.1,15.5l0.8-0.1l-2.1-15.5
		c-0.1-1-0.4-1.9-0.9-2.7c-0.4-0.8-1-1.4-1.6-1.9c-0.6-0.5-1.4-0.8-2.2-1.1c-0.8-0.2-1.7-0.2-2.6-0.1c-0.9,0.1-1.7,0.5-2.4,1.1
		c-0.8,0.6-1.4,1.3-1.9,2l-0.8,1.1L91.9,1.2L91.1,1.3z"/> <polygon points="63.9,45.7 55.7,46.8 59,72 67.2,70.9 65.7,58.9 65.7,59 	"/> <polygon points="73.2,44.5 74.8,56.5 66.2,48 68,61.3 76.5,69.7 84.8,68.7 81.5,43.4 	"/> <path d="M41.8,66.1c-0.9-0.1-1.7-0.4-2.5-1c-1-0.8-1.6-1.8-1.8-3.1c-0.2-1.3,0.1-2.5,0.9-3.5
		c0.6-0.7,1.3-1.3,2.1-1.5l-1.1-8.3c-3.1,0.6-5.6,2.2-7.6,4.8c-2.2,2.9-3,6.1-2.6,9.6c0.5,3.6,2.1,6.4,5,8.6c2.6,2,5.5,2.9,8.7,2.7
		L41.8,66.1z"/> <path d="M50.2,51c-2.6-2-5.5-2.9-8.7-2.7l1.1,8.3c0.9,0.1,1.7,0.4,2.5,1c1,0.8,1.6,1.8,1.8,3.1
		c0.2,1.3-0.1,2.5-0.9,3.5c-0.6,0.7-1.3,1.3-2.1,1.5l1.1,8.3c3.1-0.6,5.6-2.2,7.6-4.8c2.2-2.9,3.1-6.1,2.6-9.6
		C54.6,56.1,53,53.2,50.2,51"/> <polygon points="18.4,51.6 3.1,53.6 4,60.6 11,59.7 13.4,77.9 21.7,76.8 19.3,58.6 19.3,58.6 	"/> <polygon points="20.3,51.4 21.3,58.3 27.9,57.5 27,50.5 	"/> <path d="M109.8,57.4c-1.3,0.2-2.4-0.1-3.5-0.9c-0.9-0.7-1.4-1.5-1.7-2.6L96.3,55c0.6,3.3,2.2,6,4.8,8
		c2.8,2.2,6.1,3.1,9.6,2.6c1.2-0.2,2.4-0.5,3.6-1l-1.2-9.5C112.4,56.4,111.3,57.2,109.8,57.4"/> <path d="M107.5,39.8c-3.6,0.5-6.5,2.1-8.7,5C96.9,47.2,96,50,96.1,53l8.4-1.1c0.1-0.7,0.4-1.4,0.9-2.1
		c0.8-1,1.8-1.6,3.1-1.8c1.5-0.2,2.8,0.3,3.9,1.3l-1.2-9.5C110,39.6,108.7,39.6,107.5,39.8"/> <polygon points="93.9,53.3 92.4,42 83.7,43.1 85.2,54.5 	"/> <polygon points="85.4,56.4 87,68.4 95.7,67.3 94.1,55.3 	"/> <polygon points="18.8,94.3 18.7,95.2 18.7,95.6 18.8,95.7 18.8,96.2 17.8,96.2 17.6,96.3 13.6,96.6 13.5,96.3 
		13.4,95.4 13.1,92.5 13.2,92.4 13.8,92.3 14.7,92.2 14.7,92.9 14.8,93 14.8,93.1 14.8,94.4 14.8,94.5 14.9,95.1 17.4,94.9 17,92.4 
		13,90.9 12.7,86.5 14.8,86.3 14.9,86.3 15.1,86.3 15.2,86.3 15.6,86.2 15.7,86.3 16.1,86.2 16.4,86.2 16.4,86.2 17.4,86.1 
		17.5,86.1 17.8,86.2 17.9,86.8 17.9,86.9 18.1,87.1 18.1,87.5 18,87.6 18.1,87.8 18.3,90.1 16.9,90.1 16.8,89.7 16.6,87.8 
		16.4,87.8 15.7,87.9 14.2,88 14.2,88.6 14.3,88.7 14.3,88.9 14.3,89.2 14.4,89.2 14.3,89.4 14.4,89.7 14.6,89.8 17.9,91.2 
		17.9,91.3 18.5,91.6 18.5,91.6 18.5,91.7 18.7,93.7 18.6,94.1 18.8,94.1 18.8,94.3 	"/> <polygon points="25.5,93.1 25.6,93.4 25.6,93.8 25.6,94.1 25.5,94.1 25.5,94.1 25.6,94.6 25.6,94.7 25.6,95.1 
		25.7,95.3 25.6,95.7 24.8,95.7 24.6,95.8 20,96.1 19.7,94.5 19.8,94.4 19.8,94.1 19.7,93.6 19.6,91.6 19.4,90.9 19.4,90.9 
		19.4,90.2 19.3,89.7 19.3,89.6 19.3,89.4 19.3,89.4 19.1,86.2 24.9,85.7 25.1,89.2 25.2,89.4 25.2,89.5 25.2,90 24.9,90 24.8,90 
		24.7,90.1 24.4,90.1 24.3,90.2 24.2,90.1 23.4,90.4 23.2,88 23.2,87.7 23.2,87.5 23,87.5 20.8,87.8 20.9,88.7 21,89.6 21.1,90.1 
		21.2,90.6 21.2,90.6 21.5,94.5 22.6,94.3 23.8,94.2 23.9,94.1 23.8,94 23.8,93.6 23.7,93.4 23.6,92.5 23.5,92.3 23.6,92.3 
		23.6,92.2 23.5,92.2 23.5,92 23.6,91.7 24.5,91.7 24.6,91.5 24.7,91.5 24.8,91.6 25,91.5 25.4,91.5 	"/> <polygon points="27.8,85.4 28.5,94.2 28.5,95.7 26.8,95.6 26,85.7 25.9,85.6 26.1,85.5 	"/> <polygon points="34.6,94.1 34.6,94.7 29.8,95 29.2,90.5 29,87.1 28.8,86.8 28.9,86.7 28.8,85.2 33.6,84.8 33.7,85 
		33.7,85.6 33.7,85.7 33.9,86.5 32.9,86.5 30.6,86.8 30.5,86.9 30.5,87.2 30.3,87.3 30.6,89 31.5,88.9 32,88.9 32.9,89 33,89.6 
		32.9,90 33,90.2 33,90.5 30.7,90.8 30.7,90.9 30.7,91.4 30.7,91.8 30.8,91.9 30.9,93.1 31,93.2 33.3,93 33.6,92.9 34.6,92.7 	"/> <polygon points="40.5,91.1 40.4,91.1 40.6,93.3 40.5,93.3 40.6,94.1 40.6,94.5 39.4,94.6 36.4,88.4 36.9,94.7 
		35.5,94.8 35.3,94 35.4,93.9 35,91.4 35,91.1 34.6,85.2 34.5,84.8 35.6,84.7 35.6,84.7 35.8,84.7 36.1,84.6 36.5,85.7 36.7,85.9 
		37.2,87 37.3,87 37.3,87.1 37.6,87.6 37.5,87.7 38.9,90.5 39,90.6 38.9,89.9 38.5,87.5 38.6,87.4 38.5,86.1 38.4,86 38.5,85.9 
		38.4,84.5 39.8,84.4 40.1,87.8 40.2,87.9 40.1,88.1 40.3,88.3 40.4,90.7 	"/> <polygon points="47.4,91.5 47.5,91.8 47.5,92.2 47.5,92.4 47.4,92.4 47.4,92.5 47.5,93 47.4,93.1 47.5,93.5 
		47.5,93.7 47.5,94.1 46.7,94 46.5,94.1 41.9,94.5 41.6,92.8 41.7,92.7 41.7,92.4 41.6,92 41.4,90 41.3,89.3 41.3,89.2 41.3,88.6 
		41.1,88 41.2,87.9 41.1,87.7 41.2,87.7 41,84.5 46.8,84.1 47,87.5 47.1,87.8 47,87.8 47.1,88.3 46.7,88.4 46.7,88.3 46.6,88.5 
		46.3,88.4 46.2,88.6 46.1,88.5 45.3,88.7 45.1,86.3 45.1,86 45.1,85.8 44.9,85.9 42.6,86.1 42.8,87 42.9,88 43,88.5 43.1,88.9 
		43.1,89 43.4,92.8 44.5,92.6 45.7,92.5 45.7,92.5 45.7,92.4 45.7,91.9 45.6,91.7 45.5,90.9 45.4,90.7 45.5,90.7 45.5,90.6 
		45.4,90.5 45.4,90.3 45.5,90.1 46.4,90 46.5,89.8 46.6,89.8 46.7,89.9 46.9,89.8 47.2,89.8 	"/> <polygon points="53.4,92.6 53.5,93.3 48.7,93.6 48.1,89.1 47.9,85.7 47.6,85.4 47.7,85.3 47.6,83.7 52.5,83.4 
		52.5,83.5 52.6,84.2 52.5,84.3 52.8,85 51.8,85.1 49.4,85.4 49.3,85.5 49.3,85.7 49.2,85.8 49.5,87.6 50.3,87.5 50.8,87.5 
		51.8,87.6 51.8,88.2 51.8,88.6 51.9,88.8 51.9,89.1 49.6,89.4 49.6,89.5 49.5,90 49.6,90.4 49.6,90.5 49.7,91.7 49.9,91.8 
		52.2,91.6 52.5,91.5 53.5,91.3 	"/> <polygon points="66.1,88.5 66.1,88.6 66.1,88.8 66.1,88.8 66.1,90.2 66.3,90.4 66.2,90.4 66.2,90.6 66.3,90.6 
		66.2,90.8 66.1,91 66.2,92.6 64.6,92.7 64.5,92.6 64.6,92.5 64,91.4 63.1,89.8 62.2,87.9 61.9,87 61.9,88 62,88.2 62,88.6 
		62.2,89.4 62.2,89.5 62.2,89.6 62.3,92.8 62.1,92.8 61.6,92.9 61.5,92.8 61.4,92.9 61.1,92.9 60.9,92.9 60.1,86.3 60,84.4 60,82.8 
		60.4,82.9 61.1,82.8 61.3,82.7 62.5,84.9 62.6,85 62.6,85 62.8,85.4 62.8,85.5 63.4,86.5 64.3,88.6 64.4,88.7 63.7,82.9 63.8,82.6 
		65.2,82.5 65.5,84.2 65.6,84.6 65.7,85.6 65.8,85.7 65.8,85.8 65.7,85.9 	"/> <polygon points="72.2,91.2 72.3,91.8 67.5,92.2 66.9,87.7 66.6,84.3 66.4,84 66.5,83.9 66.4,82.3 71.2,82 
		71.3,82.1 71.4,82.8 71.3,82.9 71.6,83.6 70.6,83.7 68.2,84 68.1,84.1 68.1,84.3 68,84.4 68.3,86.2 69.1,86.1 69.6,86.1 70.6,86.2 
		70.6,86.8 70.5,87.2 70.7,87.4 70.7,87.6 68.4,87.9 68.3,88.1 68.3,88.6 68.3,89 68.4,89.1 68.5,90.3 68.7,90.4 70.9,90.2 
		71.3,90.1 72.3,89.8 	"/> <polygon points="77.9,83.1 77.7,83.3 77,83.2 76.3,83.2 76,83.3 76.2,86 76.3,86.5 76.6,89.9 76.6,90.1 76.7,90.8 
		76.8,91 76.7,91 76.7,91.1 76.6,91.3 76.7,91.6 76.8,91.8 76.6,92 75.3,92.1 75.2,92 74.5,83.5 72.2,83.7 72.2,83.4 72.1,82.1 
		72,81.9 72,81.8 72,81.7 73.3,81.8 75,81.6 75.2,81.6 75.6,81.6 76.2,81.5 76.3,81.6 76.4,81.5 76.5,81.5 76.7,81.5 76.9,81.5 
		77.6,81.5 77.7,81.8 77.8,82.9 	"/> <polygon points="84.2,80.9 84.1,82.4 84,84.2 84.1,85.7 84.2,87.5 84.1,90.1 84.1,90.4 84.3,91.2 83.8,91.2 
		82.9,91.2 82.9,90.9 82.9,90.9 81.9,87.6 81.8,87.6 81.7,91.3 80.8,91.3 80.6,91.4 80.2,89.4 79.3,85.4 79.1,85.2 78.6,81.2 
		78.9,81.1 79,81.3 79.8,81.2 80.2,81.3 80.2,81.8 80.9,84.9 80.9,84.9 81,83.6 81.2,81.7 81.3,81 81.5,80.9 81.6,81 81.6,81.4 
		81.8,82.2 82.5,84.5 82.6,84.5 82.6,83.3 82.5,82.1 82.5,81.6 82.4,81.1 82.4,81 83.9,80.9 84.1,80.9 	"/> <path d="M91.5,90.6L86.1,91l-0.5-6.5l-0.2-0.9l-0.1-1.1l0.1-0.2l-0.1-1.5l1.5,0l3.7-0.3l0.5,6.5L91.5,90.6z
		 M89.7,89.3l-0.3-4.5l-0.3-2.6L89,82.1l-2.1,0.2l0.3,2.3l-0.1,0.1l0.1,0.2l-0.1,0.1l0.1,0l0.3,4.4L89.7,89.3z"/> <path d="M97.2,82.3l0,0.2l0.1,1.4L96,84.1l0.3,1.1l0.1,0l0.7,2.5l0,0.2l0.6,2.3l-1.3,0.1l-2-6.2l-0.2,0.1l-0.4,0
		l-0.2,0l-0.1,0.1l0.3,2.9l-0.1,0.2l0.1,0.3l0,0.2l0,0.1l0.1,0.5l-0.1,0.1l0.1,0.2l-0.1,0.5l0.1,0.8l0.1,0.4l-1.5,0.1l0-0.4
		l-0.4-4.6l-0.3-2.1l0-1.3l-0.1-1.5l0-0.2l5.1-0.4l0.1,0.2l0,0.2L97.2,82.3L97.2,82.3z M95.6,82l-0.1-0.3l-2.3,0.2l0.1,0.7l2.3-0.2
		L95.6,82z"/> <polygon points="103.7,89.5 103.6,89.7 102.4,89.8 100.7,85.8 100.1,87.2 100.3,90 98.9,90.1 98.8,89.5 98.7,88.6 
		98.6,88.4 98.7,88.3 98.6,87.6 98,80.1 99.6,80 99.9,84 99.9,84.3 100.5,82.5 100.6,82.5 101.4,79.9 103,79.8 101.5,83.7 	"/> <polygon points="105.7,79.5 106.3,88.4 106.3,89.9 104.6,89.8 103.9,79.8 103.7,79.8 104,79.6 	"/> <polygon points="112.7,85.6 112.7,85.7 112.9,87.8 112.8,87.9 112.8,88.7 112.9,89.1 111.7,89.1 108.7,83 
		109.2,89.3 107.8,89.4 107.6,88.5 107.7,88.4 107.2,86 107.3,85.7 106.8,79.8 106.7,79.4 107.8,79.3 107.9,79.2 108,79.3 
		108.4,79.2 108.7,80.3 108.9,80.4 109.4,81.5 109.6,81.6 109.5,81.7 109.8,82.1 109.8,82.2 111.1,85 111.3,85.1 111.2,84.4 
		110.8,82 110.8,81.9 110.7,80.6 110.6,80.6 110.7,80.5 110.6,79.1 112.1,79 112.3,82.3 112.5,82.4 112.4,82.7 112.5,82.8 
		112.7,85.2 	"/> <polygon points="118.5,78.5 118.5,78.9 118.5,81.4 117,81.5 116.9,80.2 115.2,80.3 115,80.7 115.5,87 115.6,87.3 
		115.9,87.3 116.6,87.3 116.8,87.5 117.1,87.3 117.2,87.3 117.4,87.3 117.5,87.2 117.3,84.6 116.1,84.7 116,82.9 118.7,82.7 
		119.1,88.7 114.1,89 113.4,78.9 	"/> </g> </symbol><symbol viewBox="0 0 10.95 10.95" id="shape-close"><title>close</title>  <line fill="none" stroke="#443922" stroke-miterlimit="10" x1="10.6" y1="0.35" x2="0.35" y2="10.6"/> <line fill="none" stroke="#443922" stroke-miterlimit="10" x1="10.6" y1="10.6" x2="0.35" y2="0.35"/> </symbol><symbol viewBox="0 0 11.2 24" id="shape-face"><title>face</title>  <g> <path id="face-Facebook_1_" fill="#FFFFFF" d="M2.4,4.6c0,0.6,0,3.3,0,3.3H0v4h2.4v12h5V12h3.3c0,0,0.3-1.9,0.5-4.1c-0.4,0-3.8,0-3.8,0
		s0-2.4,0-2.8c0-0.4,0.5-1,1.1-1c0.5,0,1.7,0,2.7,0c0-0.6,0-2.5,0-4.2c-1.4,0-3,0-3.7,0C2.3,0,2.4,4,2.4,4.6z"/> </g> </symbol><symbol viewBox="0 0 10.7 9.2" id="shape-filter-arrow"><title>filter-arrow</title>  <polygon points="10.7,0 5.3,9.2 0,0 "/> </symbol><symbol viewBox="0 0 8.7 8.7" id="shape-filter-close"><title>filter-close</title>  <g> <g id="filter-close-c142_x_1_"> <path d="M4.3,0C1.9,0,0,1.9,0,4.3c0,2.4,1.9,4.3,4.3,4.3c2.4,0,4.3-1.9,4.3-4.3C8.7,1.9,6.7,0,4.3,0z M7.1,6.1l-1,1
			c0,0-1.6-1.7-1.7-1.7c-0.1,0-1.7,1.7-1.7,1.7l-1-1c0,0,1.7-1.6,1.7-1.7c0-0.1-1.7-1.7-1.7-1.7l1-1c0,0,1.6,1.7,1.7,1.7
			c0.1,0,1.7-1.7,1.7-1.7l1,1c0,0-1.7,1.6-1.7,1.7C5.4,4.5,7.1,6.1,7.1,6.1z"/> </g>  </g> </symbol><symbol viewBox="0 0 28.8 28.8" id="shape-fullscreen"><title>fullscreen</title>  <g> <g> <g id="fullscreen-fullscreen_2_"> <path d="M4.1,18.5H0v10.3h10.3v-4.1H4.1V18.5z M0,10.3h4.1V4.1h6.2V0H0V10.3z M24.7,24.7h-6.2v4.1h10.3V18.5h-4.1
				V24.7z M18.5,0v4.1h6.2v6.2h4.1V0H18.5z"/> </g> </g> </g> </symbol><symbol viewBox="0 0 9.6 18.5" id="shape-icon-face"><title>icon-face</title>  <path d="M0,6.8h2.8V4.1c0,0-0.1-1.7,1.2-3c1.3-1.3,3.1-1.2,5.6-1v2.9H7.8c0,0-0.8,0-1.1,0.4c-0.4,0.4-0.3,1-0.3,1.2
	v2.1h3.2l-0.4,3.3H6.3v8.4H2.9V10H0V6.8z"/> </symbol><symbol viewBox="0 0 14.9 16.6" id="shape-icon-gplus"><title>icon-gplus</title>  <g> <g> <path d="M7.4,8.5C7,8,7.3,7.3,7.7,7C8,6.7,8.5,6.3,8.8,6C9,5.8,9.6,5.2,9.7,3.5c0,0,0.2-1.5-1.5-2.7h1.3L10.8,0
			H6.2c0,0-2.8-0.1-4.1,1.6c-1.3,1.7-1.3,3.8,0.2,5c1.4,1.2,3.2,0.9,3.2,0.9s-0.3,0.6-0.2,1c0,0.5,0.6,1.1,0.7,1.3
			c0,0-3.2,0-4.7,1.4c-1.6,1.4-1.7,4.1,1.4,5.1c3.1,0.9,7.1-0.1,7.9-3c0,0,0.3-1.2-0.3-2.2C9.5,10,7.9,8.9,7.4,8.5z M4,6
			C3,4.7,2.3,2.1,4,1c0,0,1.3-0.8,2.4,0.4c1.1,1.1,1.4,3,1.2,4c-0.2,1-0.8,1.2-1,1.3C6.5,6.8,5,7.3,4,6z M8.9,13.3
			c0,0.5-0.1,1.7-2,2.2c-1.9,0.5-5.1-0.4-5-2.5c0,0,0-0.9,0.6-1.5c0.6-0.5,1.5-1.1,4-1.1c0,0,0.9,0.6,1.4,1.1
			C8.6,12,9,12.8,8.9,13.3z"/> <polygon points="13.2,7 13.2,5.4 12.2,5.4 12.2,7 10.5,7 10.5,8 12.2,8 12.2,9.7 13.2,9.7 13.2,8 14.9,8 14.9,7 		
			"/> </g> </g> </symbol><symbol viewBox="0 0 16.6 11.4" id="shape-icon-mail"><title>icon-mail</title>  <g> <path d="M0.3,0.3l7.1,5.6c0,0,0.4,0.4,0.8,0.4c0.5,0,0.7-0.1,0.9-0.3l7.2-5.6c0,0,0-0.4-0.8-0.4H0.9
		C0.9,0,0.5,0.1,0.3,0.3z"/> <polygon points="0,1.3 6,6.6 0,11.1 	"/> <polygon points="10.5,6.7 16.6,1.5 16.6,11.1 	"/> <path d="M6.4,6.9c0,0,1,1.1,1.9,1.1c0.9,0,1.8-1.1,1.8-1.1l5.9,4.6H0.4L6.4,6.9z"/> </g> </symbol><symbol viewBox="0 0 24 24" id="shape-icon-reactor"><title>icon-reactor</title>  <circle stroke-width="6" stroke-miterlimit="8" cx="12" cy="12" r="8"/> </symbol><symbol viewBox="0 0 14.5 14.6" id="shape-icon-rss"><title>icon-rss</title>  <g> <circle cx="2.2" cy="12.4" r="2.2"/> <path d="M9.8,14.6H7.4c0-4-3.4-7.4-7.4-7.4V4.8c2.6,0,5,1,6.9,2.9C8.7,9.6,9.8,12,9.8,14.6z"/> <path d="M14.5,14.6h-2.3C12.2,7.9,6.6,2.3,0,2.3V0c2,0,3.9,0.4,5.7,1.2C7.4,1.9,9,3,10.3,4.3
		c1.3,1.3,2.4,2.9,3.1,4.6C14.2,10.8,14.5,12.7,14.5,14.6z"/> </g> </symbol><symbol viewBox="0 0 18.9 15.4" id="shape-icon-twitt"><title>icon-twitt</title>  <path d="M1.3,0.7c0,0,2.9,3.8,7.9,4.1c0,0-0.7-2.3,1.4-4c2.1-1.7,4.7-0.3,5.2,0.4c0,0,1.5-0.2,2.5-0.9
	c0,0-0.3,1.3-1.6,2.1c0,0,1.5-0.2,2.1-0.6c0,0-0.7,1.1-1.9,2c0,0,0.5,4.8-3.6,8.8c-4.1,4-10.9,3.1-13.3,1.1c0,0,3.3,0.4,5.7-1.6
	c0,0-2.8-0.1-3.6-2.6c0,0,1.4,0.1,1.6-0.2c0,0-3-0.7-3-3.8c0,0,0.9,0.5,1.7,0.5C2.4,5.9-0.4,3.8,1.3,0.7z"/> </symbol><symbol viewBox="0 0 20.1 20.1" id="shape-lightbox-close"><title>lightbox-close</title>  <g> <path fill="#FFFFFF" d="M17.5,0l2.6,2.6L12.7,10l7.2,7.2l-2.7,2.7L10,12.7l-7.4,7.4L0,17.5l7.4-7.4L0.2,2.9l2.7-2.7l7.2,7.2L17.5,0
		z"/> </g> </symbol><symbol viewBox="0 0 24 22.9" id="shape-linke"><title>linke</title>  <g> <path id="linke-LinkedIn_1_" d="M24,14.1v8.9h-5.1v-8.3c0-2.1-0.7-3.5-2.6-3.5c-1.4,0-2.3,1-2.6,1.9
		c-0.1,0.3-0.2,0.8-0.2,1.3v8.6H8.3c0,0,0.1-14,0-15.5h5.1v2.2c0,0,0,0,0,0h0v0c0.7-1.1,1.9-2.6,4.6-2.6C21.5,7.1,24,9.3,24,14.1z
		 M2.9,0C1.2,0,0,1.2,0,2.7c0,1.5,1.1,2.7,2.8,2.7h0c1.8,0,2.9-1.2,2.9-2.7C5.8,1.2,4.7,0,2.9,0z M0.3,22.9h5.1V7.5H0.3V22.9z"/> </g> </symbol><symbol viewBox="0 0 158.93 24.15" id="shape-logo"><title>logo</title>  <g> <g> <path fill="#443922" d="M19.47,15.86l6.02-3.47c-1.87-1.66-3.84-0.75-4.72-0.16C18.73,13.61,19.47,15.86,19.47,15.86z M31.04,19.8
			c-1.56,3.42-4.92,4.34-7.48,4.34c-4.53,0-8.2-3.67-8.2-8.2c0-4.52,3.67-8.19,8.2-8.19c3.58,0,6.63,2.3,7.74,5.5l-3.8,2.12
			l-6.41,3.69c0.46,0.78,1.62,1.3,2.53,1.3c0.97,0,2.91-0.11,4.2-2.39L31.04,19.8z"/> </g> <g> <path fill="#D6362B" d="M135.32,23.91c-3.53-0.01-6.01-6.1-6.67-8.55c-0.97-3.6-1.7-7.91-1.7-7.91h4.25c0,0,0.44,3.3,1.49,6.82
			c0.59,1.98,1.58,3.75,2.63,4.76c1.05-1,2.04-2.78,2.63-4.76c1.05-3.52,1.49-6.82,1.49-6.82h4.25c0,0-0.73,4.3-1.7,7.91
			C141.32,17.81,138.83,23.9,135.32,23.91z"/> </g> <g> <path fill="#443922" d="M150.56,7.46c3.53,0.01,6.01,6.11,6.67,8.55c0.97,3.6,1.7,7.91,1.7,7.91h-4.25c0,0-0.44-3.3-1.49-6.82
			c-0.59-1.98-1.58-3.76-2.63-4.76c-1.05,1-2.04,2.78-2.63,4.76c-1.05,3.52-1.49,6.82-1.49,6.82h-4.25c0,0,0.73-4.3,1.7-7.91
			C144.56,13.56,147.04,7.47,150.56,7.46z"/> </g> <g> <path fill="#226C3E" d="M55.5,23.81l-3.59,0.01h-4.12L47.77,12h-3.34l-3.13-0.02c-3.73,0-4.92,1.9-4.92,3.63
			c0,2.15,1.14,4.06,5.39,4.06h1.72l1.87,4.15h-4.37c-7.33,0-8.77-4.64-8.77-8.21c0-4,2.74-7.78,8.77-7.78l3.16,0.02h3.6V7.74V0
			h4.15v19.66h3.32l3.13,0.02c3.72,0,4.91-1.9,4.91-3.63c0-2.15-1.14-4.06-5.39-4.06h-1.72L54.3,7.83h4.37
			c7.32,0,8.77,4.64,8.77,8.21c0,4-2.74,7.78-8.77,7.78L55.5,23.81z"/> </g> <g> <path fill="#87AC64" d="M83.98,7.61c4.44,0,8.04,3.6,8.04,8.04c0,4.44-3.6,8.04-8.04,8.04c-4.44,0-8.04-3.6-8.04-8.04
			C75.95,11.21,79.54,7.61,83.98,7.61z M83.98,11.41c-2.34,0-4.24,1.9-4.24,4.24c0,2.34,1.9,4.24,4.24,4.24
			c2.34,0,4.24-1.9,4.24-4.24C88.22,13.3,86.33,11.41,83.98,11.41z"/> </g> <g> <path fill="#F28000" d="M93.89,23.56v-8.78c0-4.04,3.28-7.32,7.32-7.32c4.04,0,7.32,3.28,7.32,7.32v8.78h-4.18v-8.78
			c0-1.73-1.41-3.14-3.14-3.14c-1.73,0-3.14,1.4-3.14,3.14v8.78H93.89z"/> </g> <g> <rect x="69.27" y="7.35" fill="#337321" width="4.18" height="16.21"/> </g> <g> <path fill="#D6362B" d="M118.7,7.61c4.44,0,8.04,3.6,8.04,8.04c0,4.44-3.6,8.04-8.04,8.04c-4.44,0-8.04-3.6-8.04-8.04
			C110.66,11.21,114.26,7.61,118.7,7.61z M118.7,11.41c-2.34,0-4.24,1.9-4.24,4.24c0,2.34,1.9,4.24,4.24,4.24
			c2.34,0,4.24-1.9,4.24-4.24C122.94,13.3,121.04,11.41,118.7,11.41z"/> </g> <g> <path fill="#443922" d="M0,23.73v-8.58c0-4.01,3.25-7.26,7.26-7.26c4.01,0,7.26,3.25,7.26,7.26h-4.15c0-1.72-1.39-3.11-3.11-3.11
			c-1.72,0-3.11,1.39-3.11,3.11v8.58H0z"/> </g> </g> </symbol><symbol viewBox="0 0 17.2 17.2" id="shape-lupa"><title>lupa</title>  <g> <g> <g> <path d="M6.59,13.04C2.96,13.04,0,10.12,0,6.52C0,2.93,2.96,0,6.59,0c3.64,0,6.59,2.93,6.59,6.52
				C13.19,10.12,10.23,13.04,6.59,13.04z M6.59,1.39c-2.86,0-5.19,2.3-5.19,5.13c0,2.83,2.33,5.13,5.19,5.13
				c2.86,0,5.19-2.3,5.19-5.13C11.78,3.69,9.45,1.39,6.59,1.39z"/> </g> <g> <path d="M11.48,10.56c0,0,0.07-0.03,0.17-0.05c0.1-0.03,0.23-0.05,0.36-0.04c0.13,0.01,0.26,0.05,0.37,0.14
				c0.1,0.09,0.22,0.19,0.35,0.3c0.51,0.44,1.18,1.04,1.82,1.67c0.31,0.32,0.64,0.63,0.92,0.94c0.29,0.3,0.55,0.59,0.78,0.85
				c0.44,0.51,0.71,0.87,0.71,0.87c0.41,0.55,0.29,1.33-0.27,1.73c-0.45,0.33-1.05,0.31-1.48,0c0,0-0.37-0.27-0.88-0.71
				c-0.26-0.22-0.55-0.48-0.86-0.77c-0.31-0.28-0.62-0.6-0.95-0.91c-0.63-0.64-1.24-1.29-1.69-1.8c-0.11-0.13-0.22-0.24-0.31-0.34
				c-0.09-0.1-0.13-0.23-0.14-0.36c-0.01-0.13,0.02-0.26,0.04-0.36c0.02-0.1,0.06-0.17,0.05-0.17
				C10.69,11.09,11.05,10.75,11.48,10.56z"/> </g> </g> </g> </symbol><symbol viewBox="0 0 16 11" id="shape-newsletter"><title>newsletter</title> <g> <g> <path d="M16,0.5C16,0.2,15.8,0,15.5,0H0.5C0.2,0,0,0.2,0,0.5v9.9C0,10.8,0.2,11,0.5,11h14.9c0.3,0,0.5-0.2,0.5-0.5
			V0.5z M15,10H1V1h14V10z"/> <path d="M3,3.6l4.8,3C8,6.6,8.1,6.6,8.1,6.6s0.2,0,0.3-0.1l4.8-3c0.2-0.1,0.3-0.5,0.2-0.7S13,2.5,12.7,2.7L8.1,5.5
			L3.6,2.7C3.3,2.5,3,2.6,2.9,2.9C2.7,3.1,2.8,3.4,3,3.6z"/> </g> </g> </symbol><symbol viewBox="0 0 17.4 30" id="shape-next"><title>next</title>  <g> <g> <polygon points="2,0 0,2 13.4,15 0,28 2,30 17.4,15 		"/> </g> </g> </symbol><symbol viewBox="0 0 17 17" id="shape-phone"><title>phone</title>  <g> <g> <g> <path fill="#0C6A36" d="M16.9,12.9c0-0.1-1-1.9-3.6-2.5c-0.2,0-0.4,0-0.5,0.1c-0.8,0.7-2,1.5-2.5,1.5C7,10.4,5.2,7.3,5.1,6.8
				c0-0.3,0.7-1.5,1.6-2.4c0.1-0.1,0.2-0.3,0.2-0.4C6.7,1.3,4,0.1,3.9,0.1C3.8,0,3.7,0,3.6,0C0.5,0.5,0,2.3,0,2.4c0,0.1,0,0.2,0,0.3
				C3.7,14,11.3,16.1,13.7,16.8l0.5,0.1l0.2,0l0.2-0.1c0.1,0,1.9-0.9,2.3-3.7C17,13.1,17,13,16.9,12.9z"/> </g> </g> </g> </symbol><symbol viewBox="0 0 17.4 30" id="shape-prev"><title>prev</title>  <g> <g> <polygon points="15.4,30 17.4,28 4,15 17.4,2 15.4,0 0,15 		"/> </g> </g> </symbol><symbol viewBox="0 0 14.8 20" id="shape-simple-marker"><title>simple-marker</title>  <g> <g> <path fill="#0C6A36" d="M7.4,0C3.3,0,0,3.3,0,7.4c0,1.1,0.2,2.1,0.6,3c1.8,4,5.4,8.3,6.4,9.5C7.1,20,7.3,20,7.4,20
			s0.2-0.1,0.3-0.1c1-1.2,4.6-5.5,6.4-9.5c0.4-0.9,0.6-2,0.6-3C14.8,3.3,11.5,0,7.4,0z M7.4,11.2c-2.1,0-3.8-1.7-3.8-3.8
			c0-2.1,1.7-3.8,3.8-3.8s3.8,1.7,3.8,3.8C11.2,9.5,9.5,11.2,7.4,11.2z"/> </g> </g> </symbol><symbol viewBox="0 0 24 19.5" id="shape-twitt"><title>twitt</title>  <g> <g> <path d="M24,2.3c-0.9,0.4-1.8,0.7-2.8,0.8c1-0.6,1.8-1.6,2.2-2.7c-1,0.6-2,1-3.1,1.2C19.3,0.6,18,0,16.6,0
			c-2.7,0-4.9,2.2-4.9,4.9c0,0.4,0,0.8,0.1,1.1C7.7,5.8,4.1,3.9,1.7,0.9C1.2,1.6,1,2.5,1,3.4c0,1.7,0.9,3.2,2.2,4.1
			C2.4,7.4,1.6,7.2,1,6.9v0.1c0,2.4,1.7,4.4,3.9,4.8c-0.4,0.1-0.8,0.2-1.3,0.2c-0.3,0-0.6,0-0.9-0.1c0.6,2,2.4,3.4,4.6,3.4
			c-1.7,1.3-3.8,2.1-6.1,2.1c-0.4,0-0.8,0-1.2-0.1c2.2,1.4,4.8,2.2,7.5,2.2c9.1,0,14-7.5,14-14l0-0.6C22.5,4.2,23.3,3.3,24,2.3z"/> </g> </g> </symbol><symbol viewBox="0 0 16.5 16.5" id="shape-whatsapp"><title>whatsapp</title>  <g> <path d="M16.5,8c0,4.4-3.6,8-8.1,8c-1.4,0-2.8-0.4-3.9-1L0,16.5l1.5-4.3C0.7,11,0.3,9.6,0.3,8c0-4.4,3.6-8,8.1-8
		C12.9,0,16.5,3.6,16.5,8z M8.4,1.3c-3.8,0-6.8,3-6.8,6.8c0,1.5,0.5,2.8,1.3,4L2,14.5l2.6-0.8c1.1,0.7,2.4,1.1,3.7,1.1
		c3.8,0,6.8-3,6.8-6.8C15.2,4.3,12.2,1.3,8.4,1.3z M12.5,9.9c-0.1-0.1-0.2-0.1-0.4-0.2c-0.2-0.1-1.2-0.6-1.4-0.6
		c-0.2-0.1-0.3-0.1-0.4,0.1c-0.1,0.2-0.5,0.6-0.6,0.8C9.6,10,9.4,10,9.2,9.9C9.1,9.8,8.4,9.6,7.7,9c-0.6-0.5-1-1.2-1.1-1.4
		c-0.1-0.2,0-0.3,0.1-0.4C6.7,7.1,6.8,7,6.9,6.9C7,6.7,7.1,6.7,7.1,6.5c0.1-0.1,0-0.2,0-0.3c0-0.1-0.4-1.1-0.6-1.5
		C6.3,4.3,6.2,4.4,6.1,4.4c-0.1,0-0.2,0-0.4,0s-0.3,0-0.5,0.2C5,4.8,4.4,5.3,4.4,6.3c0,1,0.7,1.9,0.8,2c0.1,0.1,1.4,2.2,3.4,3
		c2,0.8,2,0.5,2.4,0.5c0.4,0,1.2-0.5,1.3-0.9C12.5,10.4,12.5,10,12.5,9.9z"/> </g> </symbol><symbol viewBox="0 0 24 17.1" id="shape-youtube"><title>youtube</title>  <g> <g> <path fill="#FFFFFF" d="M23.8,4c-0.1-1.6-1.1-3.6-3-3.7c-5.5-0.4-11.9-0.5-17.5,0c-1.7,0.2-2.9,2.3-3,3.9c-0.3,3.4-0.3,5.3,0,8.6
			c0.1,1.6,1.3,3.7,3,3.9c5.6,0.4,12.1,0.4,17.5,0c1.7-0.3,2.9-2.3,3-3.9C24.1,9.5,24.1,7.4,23.8,4z M9,12.8V4.2l7.5,4.3L9,12.8z"/> </g> </g> </symbol></svg>